# xmcd
#
# Track frame offsets: 
#        183
#        12983
#        43015
#        48658
#        75070
#        102370
#        114058
#        133798
#        155493
#        168415
#        235500
#        256943
#        271185
#        288795
#        302553
#
# Disc length: 4293 seconds
#
# Revision: 5
# Processed by: cddbd v1.5.2PL0 Copyright (c) Steve Scherf et al.
# Submitted via: ExactAudioCopyFreeDBPlugin 1.0
#
DISCID=b110c30f
DTITLE=James Brown - Jazz and Blues collection - CD 7
DYEAR=1980
DGENRE=Blues
TTITLE0=Gonna Have A Funky Good Time
TTITLE1=Sex Machine
TTITLE2=Hot Pants
TTITLE3=Georgia On My Mind
TTITLE4=Get Up Offa That Thing
TTITLE5=Papa's Got A Brand New Bag
TTITLE6=Try Me
TTITLE7=Body Heat
TTITLE8=Please, Please, Please
TTITLE9=Medly - It's A Man's, Man's, Man's World, Lost Someone
TTITLE10=Jam
TTITLE11=Cold Sweet
TTITLE12=Get On The Good Foot
TTITLE13=I Got The Feeling
TTITLE14=Medly - The Payback It's Too Funky Here
EXTD=
EXTT0=
EXTT1=
EXTT2=
EXTT3=
EXTT4=
EXTT5=
EXTT6=
EXTT7=
EXTT8=
EXTT9=
EXTT10=
EXTT11=
EXTT12=
EXTT13=
EXTT14=
PLAYORDER=
